<svg width="59" height="37" viewBox="0 0 59 37" fill="none" xmlns="http://www.w3.org/2000/svg">
<path fill-rule="evenodd" clip-rule="evenodd" d="M36.8001 7.55C35.8321 7.55 34.9037 7.16545 34.2192 6.48094C33.5347 5.79643 33.1501 4.86804 33.1501 3.9C33.1501 2.93196 33.5347 2.00357 34.2192 1.31906C34.9037 0.634553 35.8321 0.25 36.8001 0.25H55.0501C56.0182 0.25 56.9466 0.634553 57.6311 1.31906C58.3156 2.00357 58.7001 2.93196 58.7001 3.9V22.15C58.7001 23.118 58.3156 24.0464 57.6311 24.7309C56.9466 25.4154 56.0182 25.8 55.0501 25.8C54.0821 25.8 53.1537 25.4154 52.4692 24.7309C51.7847 24.0464 51.4001 23.118 51.4001 22.15V12.7111L35.7307 28.3805C35.0462 29.0648 34.118 29.4492 33.1501 29.4492C32.1823 29.4492 31.254 29.0648 30.5696 28.3805L22.2001 20.0111L6.53067 35.6805C5.84227 36.3454 4.92027 36.7133 3.96325 36.705C3.00624 36.6967 2.09077 36.3128 1.41403 35.6361C0.737292 34.9593 0.353425 34.0439 0.345109 33.0869C0.336792 32.1298 0.704692 31.2078 1.36957 30.5194L19.6196 12.2695C20.304 11.5852 21.2323 11.2008 22.2001 11.2008C23.168 11.2008 24.0962 11.5852 24.7807 12.2695L33.1501 20.6389L46.239 7.55H36.8001Z" fill="#84CC16"/>
</svg>
